<svg xmlns="http://www.w3.org/2000/svg" width="32" height="32" viewBox="0 0 32 32">
  <path fill="#747A88" d="M16,2C9.373,2,4,7.373,4,14c0,4.408,2.395,8.232,5.936,11.145l-0.717,2.771c-0.15,0.584-0.119,1.174,0.093,1.731 C10.938,30.243,13.396,32,16,32c2.604,0,5.062-1.757,7.688-2.353c0.213-0.557,0.243-1.147,0.093-1.731l-0.717-2.771 C25.605,22.232,28,18.408,28,14C28,7.373,22.627,2,16,2z M16,28c-2.481,0-4.799-0.991-6.565-2.756 c-1.733-1.733-2.697-4.045-2.697-6.482c0-2.437,0.964-4.749,2.697-6.482c1.733-1.733,4.045-2.697,6.482-2.697 c2.437,0,4.749,0.964,6.482,2.697c1.733,1.733,2.697,4.045,2.697,6.482c0,2.437-0.964,4.749-2.697,6.482 C20.799,27.009,18.481,28,16,28z M16,7c-1.104,0-2,0.896-2,2s0.896,2,2,2c0.553,0,1,0.447,1,1s-0.447,1-1,1c-1.104,0-2,0.896-2,2 s0.896,2,2,2c0.553,0,1,0.447,1,1s-0.447,1-1,1c-1.104,0-2,0.896-2,2s0.896,2,2,2c0.553,0,1,0.447,1,1s-0.447,1-1,1 c-1.104,0-2,0.896-2,2s0.896,2,2,2c1.104,0,2-0.896,2-2s-0.896-2-2-2c-0.553,0-1-0.447-1-1s0.447-1,1-1c1.104,0,2-0.896,2-2 s-0.896-2-2-2c-0.553,0-1-0.447-1-1S15.447,7,16,7z"/>
</svg>
